<svg width="48" height="48" viewBox="0 0 48 48" fill="none" xmlns="http://www.w3.org/2000/svg">
  <defs>
    <linearGradient id="s-gradient" x1="0%" y1="0%" x2="100%" y2="100%">
      <stop offset="0%" style="stop-color:#667eea;stop-opacity:1" />
      <stop offset="50%" style="stop-color:#9f7aea;stop-opacity:1" />
      <stop offset="100%" style="stop-color:#764ba2;stop-opacity:1" />
    </linearGradient>
    <filter id="shadow">
      <feDropShadow dx="0" dy="2" stdDeviation="3" flood-opacity="0.3"/>
    </filter>
  </defs>
  
  <!-- Background circle -->
  <circle cx="24" cy="24" r="22" fill="#0f111a" opacity="0.1"/>
  
  <!-- Stylized S shape representing signal flow -->
  <path d="M 30 14 
           C 30 10, 26 8, 22 8
           C 18 8, 14 10, 14 14
           C 14 18, 18 20, 24 20
           C 30 20, 34 22, 34 26
           C 34 30, 34 34, 34 34
           C 34 38, 30 40, 26 40
           C 22 40, 18 38, 18 34" 
        stroke="url(#s-gradient)" 
        stroke-width="4" 
        stroke-linecap="round"
        fill="none"
        filter="url(#shadow)">
    <animate attributeName="stroke-dasharray" values="0 100;100 0" dur="3s" repeatCount="indefinite"/>
  </path>
  
  <!-- Signal nodes along the S -->
  <circle cx="22" cy="10" r="3" fill="url(#s-gradient)">
    <animate attributeName="opacity" values="0.5;1;0.5" dur="2s" begin="0s" repeatCount="indefinite"/>
  </circle>
  
  <circle cx="24" cy="20" r="3" fill="url(#s-gradient)">
    <animate attributeName="opacity" values="0.5;1;0.5" dur="2s" begin="0.5s" repeatCount="indefinite"/>
  </circle>
  
  <circle cx="26" cy="38" r="3" fill="url(#s-gradient)">
    <animate attributeName="opacity" values="0.5;1;0.5" dur="2s" begin="1s" repeatCount="indefinite"/>
  </circle>
  
  <!-- Flowing particles -->
  <circle r="2" fill="#667eea" opacity="0">
    <animateMotion dur="2s" repeatCount="indefinite">
      <mpath href="#s-path"/>
    </animateMotion>
    <animate attributeName="opacity" values="0;1;0" dur="2s" repeatCount="indefinite"/>
  </circle>
  
  <circle r="2" fill="#9f7aea" opacity="0">
    <animateMotion dur="2s" begin="0.7s" repeatCount="indefinite">
      <mpath href="#s-path"/>
    </animateMotion>
    <animate attributeName="opacity" values="0;1;0" dur="2s" begin="0.7s" repeatCount="indefinite"/>
  </circle>
  
  <circle r="2" fill="#764ba2" opacity="0">
    <animateMotion dur="2s" begin="1.4s" repeatCount="indefinite">
      <mpath href="#s-path"/>
    </animateMotion>
    <animate attributeName="opacity" values="0;1;0" dur="2s" begin="1.4s" repeatCount="indefinite"/>
  </circle>
  
  <path id="s-path" d="M 30 14 C 30 10, 26 8, 22 8 C 18 8, 14 10, 14 14 C 14 18, 18 20, 24 20 C 30 20, 34 22, 34 26 C 34 30, 34 34, 34 34 C 34 38, 30 40, 26 40 C 22 40, 18 38, 18 34" style="display:none"/>
</svg>